<svg xmlns="http://www.w3.org/2000/svg" xmlns:xlink="http://www.w3.org/1999/xlink" width="500" zoomAndPan="magnify" viewBox="0 0 375 149.999998" height="200" preserveAspectRatio="xMidYMid meet" version="1.0"><defs><g><g id="id1"/></g><clipPath id="id2"><path d="M 3 28 L 89 28 L 89 116.488281 L 3 116.488281 Z M 3 28 " clip-rule="nonzero"/></clipPath><clipPath id="id3"><path d="M 3 28 L 89.25 28 L 89.25 116.488281 L 3 116.488281 Z M 3 28 " clip-rule="nonzero"/></clipPath></defs><g fill="rgb(6.269836%, 16.468811%, 25.878906%)" fill-opacity="1"><g transform="translate(106.787334, 68.227513)"><g><path d="M 36.0625 0 L 36.015625 -24.390625 L 23.921875 -4.0625 L 21.71875 -4.0625 L 9.609375 -24.25 L 9.609375 0 L 5.015625 0 L 5.015625 -33.484375 L 8.9375 -33.484375 L 22.90625 -9.953125 L 36.6875 -33.484375 L 40.609375 -33.484375 L 40.65625 0 Z M 36.0625 0 "/></g></g></g><g fill="rgb(6.269836%, 16.468811%, 25.878906%)" fill-opacity="1"><g transform="translate(151.269716, 68.227513)"><g><path d="M 27.265625 -12.53125 C 27.265625 -12.175781 27.234375 -11.710938 27.171875 -11.140625 L 6.59375 -11.140625 C 6.882812 -8.910156 7.863281 -7.117188 9.53125 -5.765625 C 11.207031 -4.410156 13.289062 -3.734375 15.78125 -3.734375 C 18.8125 -3.734375 21.25 -4.753906 23.09375 -6.796875 L 25.640625 -3.828125 C 24.492188 -2.484375 23.066406 -1.460938 21.359375 -0.765625 C 19.648438 -0.0664062 17.742188 0.28125 15.640625 0.28125 C 12.960938 0.28125 10.585938 -0.265625 8.515625 -1.359375 C 6.441406 -2.460938 4.835938 -4 3.703125 -5.96875 C 2.578125 -7.945312 2.015625 -10.179688 2.015625 -12.671875 C 2.015625 -15.128906 2.5625 -17.34375 3.65625 -19.3125 C 4.757812 -21.289062 6.273438 -22.832031 8.203125 -23.9375 C 10.128906 -25.039062 12.304688 -25.59375 14.734375 -25.59375 C 17.148438 -25.59375 19.304688 -25.039062 21.203125 -23.9375 C 23.109375 -22.832031 24.59375 -21.289062 25.65625 -19.3125 C 26.726562 -17.34375 27.265625 -15.082031 27.265625 -12.53125 Z M 14.734375 -21.71875 C 12.535156 -21.71875 10.691406 -21.046875 9.203125 -19.703125 C 7.722656 -18.367188 6.851562 -16.613281 6.59375 -14.4375 L 22.859375 -14.4375 C 22.609375 -16.582031 21.738281 -18.332031 20.25 -19.6875 C 18.769531 -21.039062 16.929688 -21.71875 14.734375 -21.71875 Z M 14.734375 -21.71875 "/></g></g></g><g fill="rgb(6.269836%, 16.468811%, 25.878906%)" fill-opacity="1"><g transform="translate(179.346177, 68.227513)"><g><path d="M 17.796875 -25.59375 C 20.242188 -25.59375 22.441406 -25.046875 24.390625 -23.953125 C 26.335938 -22.867188 27.859375 -21.351562 28.953125 -19.40625 C 30.054688 -17.46875 30.609375 -15.222656 30.609375 -12.671875 C 30.609375 -10.117188 30.054688 -7.863281 28.953125 -5.90625 C 27.859375 -3.945312 26.335938 -2.425781 24.390625 -1.34375 C 22.441406 -0.257812 20.242188 0.28125 17.796875 0.28125 C 15.910156 0.28125 14.1875 -0.0820312 12.625 -0.8125 C 11.0625 -1.539062 9.769531 -2.609375 8.75 -4.015625 L 8.75 0 L 4.359375 0 L 4.359375 -35.484375 L 8.9375 -35.484375 L 8.9375 -21.515625 C 9.957031 -22.859375 11.234375 -23.875 12.765625 -24.5625 C 14.296875 -25.25 15.972656 -25.59375 17.796875 -25.59375 Z M 17.40625 -3.734375 C 19.03125 -3.734375 20.488281 -4.109375 21.78125 -4.859375 C 23.070312 -5.609375 24.09375 -6.660156 24.84375 -8.015625 C 25.59375 -9.367188 25.96875 -10.921875 25.96875 -12.671875 C 25.96875 -14.429688 25.59375 -15.988281 24.84375 -17.34375 C 24.09375 -18.695312 23.070312 -19.738281 21.78125 -20.46875 C 20.488281 -21.207031 19.03125 -21.578125 17.40625 -21.578125 C 15.8125 -21.578125 14.359375 -21.207031 13.046875 -20.46875 C 11.742188 -19.738281 10.722656 -18.695312 9.984375 -17.34375 C 9.253906 -15.988281 8.890625 -14.429688 8.890625 -12.671875 C 8.890625 -10.921875 9.253906 -9.367188 9.984375 -8.015625 C 10.722656 -6.660156 11.742188 -5.609375 13.046875 -4.859375 C 14.359375 -4.109375 15.8125 -3.734375 17.40625 -3.734375 Z M 17.40625 -3.734375 "/></g></g></g><g fill="rgb(6.269836%, 16.468811%, 25.878906%)" fill-opacity="1"><g transform="translate(210.770789, 68.227513)"><g><path d="M 27.265625 -12.53125 C 27.265625 -12.175781 27.234375 -11.710938 27.171875 -11.140625 L 6.59375 -11.140625 C 6.882812 -8.910156 7.863281 -7.117188 9.53125 -5.765625 C 11.207031 -4.410156 13.289062 -3.734375 15.78125 -3.734375 C 18.8125 -3.734375 21.25 -4.753906 23.09375 -6.796875 L 25.640625 -3.828125 C 24.492188 -2.484375 23.066406 -1.460938 21.359375 -0.765625 C 19.648438 -0.0664062 17.742188 0.28125 15.640625 0.28125 C 12.960938 0.28125 10.585938 -0.265625 8.515625 -1.359375 C 6.441406 -2.460938 4.835938 -4 3.703125 -5.96875 C 2.578125 -7.945312 2.015625 -10.179688 2.015625 -12.671875 C 2.015625 -15.128906 2.5625 -17.34375 3.65625 -19.3125 C 4.757812 -21.289062 6.273438 -22.832031 8.203125 -23.9375 C 10.128906 -25.039062 12.304688 -25.59375 14.734375 -25.59375 C 17.148438 -25.59375 19.304688 -25.039062 21.203125 -23.9375 C 23.109375 -22.832031 24.59375 -21.289062 25.65625 -19.3125 C 26.726562 -17.34375 27.265625 -15.082031 27.265625 -12.53125 Z M 14.734375 -21.71875 C 12.535156 -21.71875 10.691406 -21.046875 9.203125 -19.703125 C 7.722656 -18.367188 6.851562 -16.613281 6.59375 -14.4375 L 22.859375 -14.4375 C 22.609375 -16.582031 21.738281 -18.332031 20.25 -19.6875 C 18.769531 -21.039062 16.929688 -21.71875 14.734375 -21.71875 Z M 14.734375 -21.71875 "/></g></g></g><g fill="rgb(6.269836%, 16.468811%, 25.878906%)" fill-opacity="1"><g transform="translate(238.84725, 68.227513)"><g><path d="M 4.359375 -35.484375 L 8.9375 -35.484375 L 8.9375 0 L 4.359375 0 Z M 4.359375 -35.484375 "/></g></g></g><g fill="rgb(6.269836%, 16.468811%, 25.878906%)" fill-opacity="1"><g transform="translate(106.787334, 115.634939)"><g><path d="M 9.8125 -29.3125 L 9.8125 -17.65625 L 26.59375 -17.65625 L 26.59375 -13.53125 L 9.8125 -13.53125 L 9.8125 0 L 5.015625 0 L 5.015625 -33.484375 L 28.65625 -33.484375 L 28.65625 -29.3125 Z M 9.8125 -29.3125 "/></g></g></g><g fill="rgb(6.269836%, 16.468811%, 25.878906%)" fill-opacity="1"><g transform="translate(135.963902, 115.634939)"><g><path d="M 27.984375 -25.34375 L 27.984375 0 L 23.625 0 L 23.625 -3.828125 C 22.695312 -2.515625 21.476562 -1.5 19.96875 -0.78125 C 18.457031 -0.0703125 16.804688 0.28125 15.015625 0.28125 C 11.640625 0.28125 8.976562 -0.648438 7.03125 -2.515625 C 5.082031 -4.378906 4.109375 -7.128906 4.109375 -10.765625 L 4.109375 -25.34375 L 8.703125 -25.34375 L 8.703125 -11.28125 C 8.703125 -8.832031 9.289062 -6.976562 10.46875 -5.71875 C 11.65625 -4.457031 13.347656 -3.828125 15.546875 -3.828125 C 17.960938 -3.828125 19.875 -4.554688 21.28125 -6.015625 C 22.6875 -7.484375 23.390625 -9.5625 23.390625 -12.25 L 23.390625 -25.34375 Z M 27.984375 -25.34375 "/></g></g></g><g fill="rgb(6.269836%, 16.468811%, 25.878906%)" fill-opacity="1"><g transform="translate(167.149359, 115.634939)"><g><path d="M 8.75 -21.09375 C 9.550781 -22.5625 10.734375 -23.675781 12.296875 -24.4375 C 13.859375 -25.207031 15.753906 -25.59375 17.984375 -25.59375 L 17.984375 -21.140625 C 17.722656 -21.171875 17.375 -21.1875 16.9375 -21.1875 C 14.445312 -21.1875 12.488281 -20.441406 11.0625 -18.953125 C 9.644531 -17.472656 8.9375 -15.363281 8.9375 -12.625 L 8.9375 0 L 4.359375 0 L 4.359375 -25.34375 L 8.75 -25.34375 Z M 8.75 -21.09375 "/></g></g></g><g fill="rgb(6.269836%, 16.468811%, 25.878906%)" fill-opacity="1"><g transform="translate(185.564023, 115.634939)"><g><path d="M 17.890625 -25.59375 C 21.109375 -25.59375 23.664062 -24.65625 25.5625 -22.78125 C 27.457031 -20.914062 28.40625 -18.1875 28.40625 -14.59375 L 28.40625 0 L 23.8125 0 L 23.8125 -14.0625 C 23.8125 -16.519531 23.222656 -18.367188 22.046875 -19.609375 C 20.867188 -20.847656 19.179688 -21.46875 16.984375 -21.46875 C 14.492188 -21.46875 12.53125 -20.742188 11.09375 -19.296875 C 9.65625 -17.847656 8.9375 -15.769531 8.9375 -13.0625 L 8.9375 0 L 4.359375 0 L 4.359375 -25.34375 L 8.75 -25.34375 L 8.75 -21.515625 C 9.675781 -22.828125 10.925781 -23.832031 12.5 -24.53125 C 14.082031 -25.238281 15.878906 -25.59375 17.890625 -25.59375 Z M 17.890625 -25.59375 "/></g></g></g><g fill="rgb(6.269836%, 16.468811%, 25.878906%)" fill-opacity="1"><g transform="translate(216.940801, 115.634939)"><g><path d="M 4.359375 -25.34375 L 8.9375 -25.34375 L 8.9375 0 L 4.359375 0 Z M 6.65625 -30.234375 C 5.757812 -30.234375 5.015625 -30.519531 4.421875 -31.09375 C 3.835938 -31.664062 3.546875 -32.363281 3.546875 -33.1875 C 3.546875 -34.019531 3.835938 -34.726562 4.421875 -35.3125 C 5.015625 -35.90625 5.757812 -36.203125 6.65625 -36.203125 C 7.539062 -36.203125 8.28125 -35.921875 8.875 -35.359375 C 9.46875 -34.804688 9.765625 -34.113281 9.765625 -33.28125 C 9.765625 -32.425781 9.46875 -31.703125 8.875 -31.109375 C 8.28125 -30.523438 7.539062 -30.234375 6.65625 -30.234375 Z M 6.65625 -30.234375 "/></g></g></g><g fill="rgb(6.269836%, 16.468811%, 25.878906%)" fill-opacity="1"><g transform="translate(229.089644, 115.634939)"><g><path d="M 18.609375 -1.484375 C 17.929688 -0.910156 17.097656 -0.472656 16.109375 -0.171875 C 15.128906 0.128906 14.113281 0.28125 13.0625 0.28125 C 10.507812 0.28125 8.53125 -0.398438 7.125 -1.765625 C 5.71875 -3.140625 5.015625 -5.101562 5.015625 -7.65625 L 5.015625 -21.578125 L 0.71875 -21.578125 L 0.71875 -25.34375 L 5.015625 -25.34375 L 5.015625 -30.890625 L 9.609375 -30.890625 L 9.609375 -25.34375 L 16.890625 -25.34375 L 16.890625 -21.578125 L 9.609375 -21.578125 L 9.609375 -7.84375 C 9.609375 -6.46875 9.953125 -5.414062 10.640625 -4.6875 C 11.328125 -3.957031 12.304688 -3.59375 13.578125 -3.59375 C 14.984375 -3.59375 16.179688 -3.988281 17.171875 -4.78125 Z M 18.609375 -1.484375 "/></g></g></g><g fill="rgb(6.269836%, 16.468811%, 25.878906%)" fill-opacity="1"><g transform="translate(247.695622, 115.634939)"><g><path d="M 27.984375 -25.34375 L 27.984375 0 L 23.625 0 L 23.625 -3.828125 C 22.695312 -2.515625 21.476562 -1.5 19.96875 -0.78125 C 18.457031 -0.0703125 16.804688 0.28125 15.015625 0.28125 C 11.640625 0.28125 8.976562 -0.648438 7.03125 -2.515625 C 5.082031 -4.378906 4.109375 -7.128906 4.109375 -10.765625 L 4.109375 -25.34375 L 8.703125 -25.34375 L 8.703125 -11.28125 C 8.703125 -8.832031 9.289062 -6.976562 10.46875 -5.71875 C 11.65625 -4.457031 13.347656 -3.828125 15.546875 -3.828125 C 17.960938 -3.828125 19.875 -4.554688 21.28125 -6.015625 C 22.6875 -7.484375 23.390625 -9.5625 23.390625 -12.25 L 23.390625 -25.34375 Z M 27.984375 -25.34375 "/></g></g></g><g fill="rgb(6.269836%, 16.468811%, 25.878906%)" fill-opacity="1"><g transform="translate(278.881073, 115.634939)"><g><path d="M 8.75 -21.09375 C 9.550781 -22.5625 10.734375 -23.675781 12.296875 -24.4375 C 13.859375 -25.207031 15.753906 -25.59375 17.984375 -25.59375 L 17.984375 -21.140625 C 17.722656 -21.171875 17.375 -21.1875 16.9375 -21.1875 C 14.445312 -21.1875 12.488281 -20.441406 11.0625 -18.953125 C 9.644531 -17.472656 8.9375 -15.363281 8.9375 -12.625 L 8.9375 0 L 4.359375 0 L 4.359375 -25.34375 L 8.75 -25.34375 Z M 8.75 -21.09375 "/></g></g></g><g fill="rgb(6.269836%, 16.468811%, 25.878906%)" fill-opacity="1"><g transform="translate(297.295729, 115.634939)"><g><path d="M 27.265625 -12.53125 C 27.265625 -12.175781 27.234375 -11.710938 27.171875 -11.140625 L 6.59375 -11.140625 C 6.882812 -8.910156 7.863281 -7.117188 9.53125 -5.765625 C 11.207031 -4.410156 13.289062 -3.734375 15.78125 -3.734375 C 18.8125 -3.734375 21.25 -4.753906 23.09375 -6.796875 L 25.640625 -3.828125 C 24.492188 -2.484375 23.066406 -1.460938 21.359375 -0.765625 C 19.648438 -0.0664062 17.742188 0.28125 15.640625 0.28125 C 12.960938 0.28125 10.585938 -0.265625 8.515625 -1.359375 C 6.441406 -2.460938 4.835938 -4 3.703125 -5.96875 C 2.578125 -7.945312 2.015625 -10.179688 2.015625 -12.671875 C 2.015625 -15.128906 2.5625 -17.34375 3.65625 -19.3125 C 4.757812 -21.289062 6.273438 -22.832031 8.203125 -23.9375 C 10.128906 -25.039062 12.304688 -25.59375 14.734375 -25.59375 C 17.148438 -25.59375 19.304688 -25.039062 21.203125 -23.9375 C 23.109375 -22.832031 24.59375 -21.289062 25.65625 -19.3125 C 26.726562 -17.34375 27.265625 -15.082031 27.265625 -12.53125 Z M 14.734375 -21.71875 C 12.535156 -21.71875 10.691406 -21.046875 9.203125 -19.703125 C 7.722656 -18.367188 6.851562 -16.613281 6.59375 -14.4375 L 22.859375 -14.4375 C 22.609375 -16.582031 21.738281 -18.332031 20.25 -19.6875 C 18.769531 -21.039062 16.929688 -21.71875 14.734375 -21.71875 Z M 14.734375 -21.71875 "/></g></g></g><g clip-path="url(#id2)"><path fill="rgb(67.059326%, 47.839355%, 37.249756%)" d="M 88.875 70.925781 L 88.875 116.011719 L 3.410156 116.011719 L 3.410156 70.925781 C 3.410156 70.328125 3.421875 69.734375 3.445312 69.144531 C 3.457031 68.902344 3.46875 68.660156 3.480469 68.421875 C 3.6875 64.910156 4.320312 61.515625 5.332031 58.285156 C 5.453125 57.910156 5.574219 57.539062 5.703125 57.167969 C 6.535156 54.746094 7.582031 52.425781 8.820312 50.226562 C 15.746094 37.925781 28.65625 29.398438 43.636719 28.535156 C 44.191406 28.503906 44.75 28.484375 45.3125 28.472656 C 45.585938 28.46875 45.863281 28.464844 46.140625 28.464844 C 46.367188 28.464844 46.589844 28.464844 46.8125 28.46875 C 47.375 28.476562 47.933594 28.496094 48.488281 28.527344 C 48.570312 28.53125 48.65625 28.535156 48.742188 28.542969 C 53.957031 28.851562 58.925781 30.09375 63.472656 32.101562 C 64.179688 32.414062 64.875 32.742188 65.558594 33.089844 C 70.722656 35.710938 75.277344 39.34375 78.957031 43.726562 C 80.652344 45.742188 82.164062 47.917969 83.460938 50.226562 C 84.699219 52.425781 85.746094 54.746094 86.582031 57.164062 C 86.707031 57.535156 86.832031 57.910156 86.949219 58.285156 C 87.960938 61.515625 88.597656 64.910156 88.800781 68.417969 C 88.816406 68.660156 88.828125 68.902344 88.835938 69.144531 C 88.863281 69.734375 88.875 70.328125 88.875 70.925781 Z M 86.722656 113.574219 L 86.722656 70.757812 C 86.722656 70.21875 86.714844 69.679688 86.691406 69.144531 C 86.683594 68.902344 86.671875 68.660156 86.65625 68.417969 C 86.453125 64.902344 85.796875 61.503906 84.746094 58.285156 C 84.621094 57.910156 84.492188 57.535156 84.359375 57.164062 C 83.484375 54.738281 82.382812 52.414062 81.078125 50.226562 C 80.34375 49 79.550781 47.816406 78.695312 46.679688 C 75.203125 42.023438 70.722656 38.144531 65.5625 35.34375 C 64.878906 34.972656 64.179688 34.621094 63.472656 34.289062 C 59.007812 32.1875 54.09375 30.875 48.917969 30.527344 C 48.832031 30.523438 48.75 30.519531 48.664062 30.511719 C 48.050781 30.476562 47.433594 30.453125 46.8125 30.441406 C 46.589844 30.4375 46.367188 30.4375 46.140625 30.4375 C 45.863281 30.4375 45.589844 30.441406 45.3125 30.445312 C 44.691406 30.457031 44.074219 30.484375 43.460938 30.523438 C 29.722656 31.414062 17.847656 39.097656 11.207031 50.226562 C 9.902344 52.414062 8.800781 54.734375 7.925781 57.164062 C 7.789062 57.535156 7.664062 57.910156 7.539062 58.285156 C 6.488281 61.503906 5.832031 64.902344 5.628906 68.417969 C 5.613281 68.660156 5.601562 68.902344 5.59375 69.144531 C 5.570312 69.679688 5.5625 70.214844 5.5625 70.757812 L 5.5625 113.574219 Z M 86.722656 113.574219 " fill-opacity="1" fill-rule="nonzero"/></g><path fill="rgb(67.059326%, 47.839355%, 37.249756%)" d="M 79.253906 58.285156 C 82.867188 60.058594 85.355469 63.757812 85.355469 68.035156 C 85.355469 68.164062 85.351562 68.292969 85.347656 68.417969 C 85.339844 68.664062 85.320312 68.90625 85.296875 69.144531 C 84.996094 72.109375 83.496094 74.71875 81.285156 76.492188 C 81.109375 73.519531 79.257812 70.992188 76.660156 69.828125 C 75.671875 69.386719 74.582031 69.144531 73.429688 69.144531 C 69.835938 69.144531 66.800781 71.539062 65.863281 74.8125 C 65.667969 75.496094 65.5625 76.214844 65.5625 76.960938 L 65.5625 79.289062 C 65.5625 79.664062 65.542969 80.03125 65.503906 80.398438 L 65.5625 80.398438 L 65.5625 96.035156 L 63.472656 96.035156 L 63.472656 88.21875 C 63.472656 87.472656 63.367188 86.75 63.171875 86.070312 C 62.234375 82.796875 59.199219 80.398438 55.605469 80.398438 C 54.816406 80.398438 54.054688 80.515625 53.335938 80.730469 C 53.253906 80.753906 53.171875 80.777344 53.09375 80.804688 C 50.121094 81.800781 47.941406 84.507812 47.75 87.75 C 47.421875 87.484375 47.109375 87.203125 46.8125 86.902344 C 46.246094 86.328125 45.742188 85.691406 45.3125 85.003906 C 44.464844 83.640625 43.910156 82.074219 43.738281 80.398438 C 43.699219 80.035156 43.679688 79.664062 43.679688 79.289062 C 43.679688 77.191406 44.277344 75.234375 45.3125 73.574219 C 45.742188 72.886719 46.246094 72.25 46.8125 71.675781 C 47.898438 70.578125 49.214844 69.707031 50.683594 69.144531 C 51.121094 68.976562 51.566406 68.835938 52.027344 68.726562 C 52.109375 68.707031 52.191406 68.6875 52.273438 68.671875 C 53.03125 68.503906 53.816406 68.417969 54.621094 68.417969 C 56.007812 68.417969 57.335938 68.675781 58.558594 69.144531 C 60.539062 69.902344 62.242188 71.21875 63.472656 72.902344 L 63.472656 68.417969 L 63.480469 68.417969 C 63.476562 68.292969 63.472656 68.164062 63.472656 68.035156 C 63.472656 65.648438 64.246094 63.4375 65.558594 61.648438 C 66.601562 60.226562 67.976562 59.066406 69.570312 58.285156 C 71.03125 57.566406 72.675781 57.164062 74.414062 57.164062 C 75.566406 57.164062 76.679688 57.34375 77.726562 57.671875 C 78.253906 57.839844 78.765625 58.042969 79.253906 58.285156 Z M 79.253906 58.285156 " fill-opacity="1" fill-rule="nonzero"/><path fill="rgb(67.059326%, 47.839355%, 37.249756%)" d="M 74.351562 96.035156 L 72.804688 113.574219 L 56.230469 113.574219 L 54.683594 96.035156 Z M 74.351562 96.035156 " fill-opacity="1" fill-rule="nonzero"/><path fill="rgb(67.059326%, 47.839355%, 37.249756%)" d="M 50.398438 50.226562 L 51.011719 57.164062 L 41.117188 57.164062 L 41.726562 50.226562 L 45.3125 50.226562 L 45.3125 30.445312 C 45.589844 30.441406 45.863281 30.4375 46.140625 30.4375 C 46.367188 30.4375 46.589844 30.4375 46.8125 30.441406 L 46.8125 50.226562 Z M 50.398438 50.226562 " fill-opacity="1" fill-rule="nonzero"/><path fill="rgb(67.059326%, 47.839355%, 37.249756%)" d="M 47.492188 57.164062 C 47.738281 57.472656 47.882812 57.863281 47.882812 58.285156 C 47.882812 59.019531 47.445312 59.648438 46.8125 59.933594 C 46.585938 60.039062 46.328125 60.09375 46.0625 60.09375 C 45.796875 60.09375 45.542969 60.035156 45.3125 59.933594 C 44.679688 59.648438 44.242188 59.019531 44.242188 58.285156 C 44.242188 57.863281 44.386719 57.472656 44.632812 57.164062 Z M 47.492188 57.164062 " fill-opacity="1" fill-rule="nonzero"/><path fill="rgb(67.059326%, 47.839355%, 37.249756%)" d="M 40.613281 87.109375 C 43.347656 87.109375 45.5625 89.3125 45.5625 92.027344 C 45.5625 92.710938 45.421875 93.363281 45.167969 93.953125 C 44.742188 94.953125 43.988281 95.78125 43.042969 96.308594 C 43.042969 96.3125 43.042969 96.3125 43.039062 96.3125 C 42.917969 96.375 42.796875 96.433594 42.675781 96.496094 C 42.660156 96.503906 42.636719 96.515625 42.617188 96.523438 C 40.714844 97.457031 38.71875 98.238281 36.648438 98.847656 L 39.816406 110.585938 L 40.625 113.574219 L 39.226562 113.574219 L 38.789062 112.386719 L 38.78125 112.371094 L 37.390625 108.566406 L 34.070312 99.507812 C 33.667969 99.59375 33.265625 99.675781 32.859375 99.75 L 32.855469 99.742188 C 32.78125 99.757812 32.710938 99.773438 32.636719 99.789062 C 32.5625 99.804688 32.488281 99.816406 32.410156 99.832031 C 32.328125 99.847656 32.242188 99.859375 32.15625 99.875 C 30.640625 100.121094 29.097656 100.28125 27.53125 100.347656 C 27.132812 100.363281 26.734375 100.371094 26.335938 100.375 L 23.992188 113.574219 L 22.75 113.574219 L 23.917969 100.324219 C 23.621094 100.308594 23.324219 100.289062 23.035156 100.265625 L 23.03125 100.265625 C 21.074219 100.117188 19.15625 99.816406 17.292969 99.375 L 14.304688 107.542969 L 14.300781 107.546875 L 13.566406 109.542969 L 13.566406 109.546875 L 12.089844 113.574219 L 10.855469 113.574219 L 11.949219 109.503906 L 12.921875 105.90625 L 14.859375 98.71875 C 14.402344 98.578125 13.949219 98.429688 13.503906 98.273438 C 13.425781 98.25 13.351562 98.222656 13.277344 98.195312 C 13.269531 98.195312 13.261719 98.1875 13.253906 98.1875 C 12.179688 97.761719 11.363281 96.832031 11.105469 95.6875 L 11.0625 95.429688 L 11.058594 95.421875 L 11.058594 95.417969 L 10.929688 94.683594 L 10.925781 94.660156 L 10.894531 94.484375 C 10.867188 94.308594 10.855469 94.128906 10.855469 93.949219 L 10.800781 93.949219 L 9.226562 85.082031 L 8.378906 80.308594 L 8.347656 80.125 C 8.316406 79.933594 8.304688 79.742188 8.304688 79.550781 C 8.304688 77.472656 10 75.785156 12.089844 75.785156 L 19.199219 75.785156 C 19.824219 75.785156 20.414062 75.9375 20.929688 76.203125 C 21.644531 76.566406 22.230469 77.15625 22.589844 77.871094 L 22.660156 78.011719 L 24.042969 80.953125 L 24.738281 82.441406 L 25.375 83.792969 L 28.207031 89.835938 L 30.140625 93.953125 L 30.605469 93.953125 L 31.703125 93.039062 L 34.460938 90.738281 L 37.46875 88.230469 C 38.175781 87.65625 39.042969 87.265625 40 87.148438 C 40.199219 87.125 40.40625 87.109375 40.613281 87.109375 Z M 40.613281 87.109375 " fill-opacity="1" fill-rule="nonzero"/><g clip-path="url(#id3)"><path stroke-linecap="butt" transform="matrix(0.0742258, 0, 0, 0.07375, 3.016897, 27.987518)" fill="none" stroke-linejoin="miter" d="M 1156.241841 558.061193 C 1156.083961 554.777294 1155.926081 551.493396 1155.715575 548.209498 C 1152.978992 500.645939 1144.400856 454.618398 1130.770568 410.815433 C 1129.19177 405.730687 1127.560345 400.645941 1125.823667 395.614162 C 1114.614202 362.828145 1100.510274 331.366281 1083.775016 301.546367 C 1066.302985 270.243401 1045.936492 240.741283 1023.096548 213.410775 C 973.522293 153.98281 912.15968 104.724336 842.639945 69.184083 C 833.377663 64.4701 824.010129 60.020947 814.484715 55.783659 C 753.227355 28.559083 686.338949 11.715863 616.029815 7.531541 C 614.872029 7.425609 613.766871 7.372643 612.609086 7.319677 C 605.136109 6.895948 597.610505 6.684084 590.032275 6.525185 C 587.032559 6.472219 584.032843 6.472219 580.9805 6.472219 C 577.244012 6.472219 573.56015 6.525185 569.823662 6.578152 C 562.245432 6.73705 554.719828 7.00188 547.246851 7.425609 C 345.423849 19.131117 171.492943 134.756115 78.185985 301.546367 C 61.503354 331.366281 47.399425 362.828145 36.18996 395.614162 C 34.453282 400.645941 32.821858 405.730687 31.190433 410.815433 C 17.560144 454.618398 9.034636 500.645939 6.245426 548.209498 C 6.087546 551.493396 5.929666 554.777294 5.771787 558.061193 C 5.456027 566.059074 5.298147 574.109921 5.298147 582.160769 L 5.298147 1193.54847 L 1156.71548 1193.54847 L 1156.71548 582.213735 C 1156.71548 574.109921 1156.5576 566.059074 1156.241841 558.061193 Z M 1156.241841 558.061193 " stroke="rgb(0%, 0%, 0%)" stroke-width="0.25" stroke-opacity="1" stroke-miterlimit="10"/></g><path stroke-linecap="butt" transform="matrix(0.0742258, 0, 0, 0.07375, 3.016897, 27.987518)" fill="none" stroke-linejoin="miter" d="M 282.640318 1160.497623 L 487.831422 1160.497623 " stroke="rgb(0%, 0%, 0%)" stroke-width="0.25" stroke-opacity="1" stroke-miterlimit="10"/><path stroke-linecap="butt" transform="matrix(0.0742258, 0, 0, 0.07375, 3.016897, 27.987518)" fill="none" stroke-linejoin="miter" d="M 506.671744 1160.497623 L 716.915003 1160.497623 " stroke="rgb(0%, 0%, 0%)" stroke-width="0.25" stroke-opacity="1" stroke-miterlimit="10"/><path stroke-linecap="butt" transform="matrix(0.0742258, 0, 0, 0.07375, 3.016897, 27.987518)" fill="none" stroke-linejoin="miter" d="M 569.823662 33.326032 C 561.456033 33.484931 553.14103 33.855693 544.878654 34.385354 C 359.79091 46.461625 199.806053 150.645946 110.340836 301.546367 C 92.763553 331.207383 77.922852 362.669247 66.134494 395.614162 C 64.292563 400.645941 62.608512 405.730687 60.924461 410.815433 C 46.767906 454.4595 37.926638 500.540007 35.190055 548.209498 C 34.979548 551.493396 34.821669 554.777294 34.716415 558.061193 C 34.400656 565.317548 34.295403 572.573904 34.295403 579.936192 L 34.295403 1160.497623 L 105.604443 1160.497623 " stroke="rgb(0%, 0%, 0%)" stroke-width="0.25" stroke-opacity="1" stroke-miterlimit="10"/><path stroke-linecap="butt" transform="matrix(0.0742258, 0, 0, 0.07375, 3.016897, 27.987518)" fill="none" stroke-linejoin="miter" d="M 940.209657 1160.497623 L 1127.718225 1160.497623 L 1127.718225 579.936192 C 1127.718225 572.62687 1127.612972 565.317548 1127.297212 558.061193 C 1127.191959 554.777294 1127.034079 551.493396 1126.823573 548.209498 C 1124.08699 500.540007 1115.245721 454.4595 1101.089166 410.815433 C 1099.405115 405.730687 1097.668438 400.645941 1095.879133 395.614162 C 1084.090775 362.722213 1069.250075 331.207383 1051.672791 301.546367 C 1041.778991 284.915011 1031.095791 268.866282 1019.570566 253.453147 C 972.522388 190.317555 912.15968 137.722217 842.639945 99.745523 C 833.43029 94.713743 824.010129 89.946794 814.484715 85.444676 C 754.332514 56.948913 688.128254 39.152303 618.398011 34.438321 C 617.240226 34.385354 616.135068 34.332388 614.977283 34.226456 C 606.714907 33.749761 598.399904 33.431965 590.032275 33.273066 " stroke="rgb(0%, 0%, 0%)" stroke-width="0.25" stroke-opacity="1" stroke-miterlimit="10"/><path stroke-linecap="butt" transform="matrix(0.0742258, 0, 0, 0.07375, 3.016897, 27.987518)" fill="none" stroke-linejoin="miter" d="M 122.234447 1160.497623 L 265.905059 1160.497623 " stroke="rgb(0%, 0%, 0%)" stroke-width="0.25" stroke-opacity="1" stroke-miterlimit="10"/><path stroke-linecap="butt" transform="matrix(0.0742258, 0, 0, 0.07375, 3.016897, 27.987518)" fill="none" stroke-linejoin="miter" d="M 842.639945 922.67983 L 961.04979 922.67983 L 940.209657 1160.497623 L 716.915003 1160.497623 L 696.07487 922.67983 L 814.484715 922.67983 " stroke="rgb(0%, 0%, 0%)" stroke-width="0.25" stroke-opacity="1" stroke-miterlimit="10"/><path stroke-linecap="butt" transform="matrix(0.0742258, 0, 0, 0.07375, 3.016897, 27.987518)" fill="none" stroke-linejoin="miter" d="M 105.604443 1160.497623 L 120.33989 1105.306946 L 133.443913 1056.525167 L 159.546705 959.120508 C 153.389393 957.213728 147.284708 955.201016 141.285276 953.082372 C 140.232744 952.764576 139.232839 952.393813 138.232933 951.970084 C 138.12768 951.970084 138.022427 951.917118 137.917174 951.864152 C 123.444859 946.143813 112.4459 933.484915 108.972545 917.965847 L 108.919918 917.701017 L 108.393652 914.523051 L 108.341026 914.364152 L 106.604348 904.353559 L 106.551721 904.088729 L 106.130709 901.652288 C 105.762322 899.268814 105.604443 896.885339 105.604443 894.395932 L 104.86767 894.395932 L 83.659151 774.162884 L 72.23918 709.438309 L 71.818167 706.948902 C 71.397154 704.353563 71.239274 701.758224 71.239274 699.162885 C 71.239274 670.984919 94.079218 648.103564 122.234447 648.103564 L 218.014855 648.103564 C 226.435111 648.103564 234.381727 650.169242 241.328438 653.770937 C 250.959106 658.696784 258.853095 666.694665 263.694742 676.387462 L 264.642021 678.294241 L 283.271837 718.177715 L 292.639371 738.3578 L 301.217507 756.684071 L 339.37179 838.622628 L 365.421956 894.448899 L 371.684521 894.448899 L 386.472595 882.054831 L 423.626973 850.857798 L 464.149453 816.853561 C 473.674868 809.067544 485.357972 803.770934 498.251489 802.181951 C 500.935445 801.864154 503.724655 801.65229 506.513865 801.65229 C 543.352483 801.65229 573.191764 831.525171 573.191764 868.336611 C 573.191764 877.605679 571.297206 886.451017 567.876478 894.448899 C 562.087552 908.00822 551.983245 919.237034 539.247608 926.387457 C 539.247608 926.440423 539.194982 926.440423 539.194982 926.440423 C 537.563557 927.287881 535.932133 928.082373 534.300708 928.92983 C 534.090202 929.035762 533.774442 929.194661 533.511309 929.300593 C 507.882156 941.959491 480.989965 952.552711 453.097868 960.815423 L 495.778039 1119.978556 L 506.619118 1160.497623 L 487.831422 1160.497623 L 481.937243 1144.395928 L 481.83199 1144.184064 L 463.096921 1092.595082 L 418.364313 969.766694 C 412.943774 970.931948 407.523234 972.044236 402.050068 973.050592 L 401.997441 972.94466 C 400.997536 973.156524 399.997631 973.368389 399.050352 973.580253 C 398.050446 973.792118 396.997915 973.951016 395.998009 974.16288 C 394.840224 974.374745 393.735065 974.533643 392.524654 974.745507 C 372.15816 978.082372 351.370654 980.253982 330.267389 981.154406 C 324.899476 981.36627 319.531563 981.472202 314.16365 981.525168 L 282.587691 1160.497623 L 265.852433 1160.497623 L 281.587786 980.836609 C 277.588164 980.624745 273.588543 980.359914 269.641548 980.042117 C 243.275622 978.029406 217.435963 973.951016 192.333076 967.965846 L 192.280449 967.965846 L 152.021102 1078.717963 L 152.021102 1078.770929 L 142.127301 1105.836607 L 142.127301 1105.889573 L 122.234447 1160.497623 Z M 105.604443 1160.497623 " stroke="rgb(0%, 0%, 0%)" stroke-width="0.25" stroke-opacity="1" stroke-miterlimit="10"/><path stroke-linecap="butt" transform="matrix(0.0742258, 0, 0, 0.07375, 3.016897, 27.987518)" fill="none" stroke-linejoin="miter" d="M 560.666634 395.614162 L 513.302696 395.614162 L 521.512445 301.546367 L 569.823662 301.546367 L 569.823662 33.326032 C 573.56015 33.273066 577.244012 33.2201 580.9805 33.2201 C 584.032843 33.2201 587.032559 33.2201 590.032275 33.273066 L 590.032275 301.546367 L 638.343492 301.546367 L 646.605868 395.614162 L 599.189303 395.614162 " stroke="rgb(0%, 0%, 0%)" stroke-width="0.25" stroke-opacity="1" stroke-miterlimit="10"/><path stroke-linecap="butt" transform="matrix(0.0742258, 0, 0, 0.07375, 3.016897, 27.987518)" fill="none" stroke-linejoin="miter" d="M 842.639945 710.656529 L 842.639945 695.614156 " stroke="rgb(0%, 0%, 0%)" stroke-width="0.25" stroke-opacity="1" stroke-miterlimit="10"/><path stroke-linecap="butt" transform="matrix(0.0742258, 0, 0, 0.07375, 3.016897, 27.987518)" fill="none" stroke-linejoin="miter" d="M 599.189303 395.614162 C 602.504779 399.798484 604.451963 405.095094 604.451963 410.815433 C 604.451963 420.773059 598.557784 429.300602 590.032275 433.167127 C 586.979933 434.597212 583.506577 435.338737 579.927968 435.338737 C 576.34936 435.338737 572.928631 434.544246 569.823662 433.167127 C 561.298153 429.300602 555.403974 420.773059 555.403974 410.815433 C 555.403974 405.095094 557.351158 399.798484 560.666634 395.614162 Z M 599.189303 395.614162 " stroke="rgb(0%, 0%, 0%)" stroke-width="0.25" stroke-opacity="1" stroke-miterlimit="10"/><path stroke-linecap="butt" transform="matrix(0.0742258, 0, 0, 0.07375, 3.016897, 27.987518)" fill="none" stroke-linejoin="miter" d="M 814.484715 922.67983 L 814.484715 816.694663 C 814.484715 806.578137 813.063797 796.779409 810.432467 787.563307 C 797.802083 743.177715 756.911217 710.656529 708.494747 710.656529 C 697.864174 710.656529 687.601988 712.245512 677.918694 715.158648 C 676.813535 715.476444 675.708376 715.794241 674.655844 716.165003 C 634.607004 729.671359 605.241362 766.376867 602.662659 810.338731 C 598.242024 806.737036 594.031897 802.923476 590.032275 798.845087 C 582.401419 791.05907 575.612587 782.425595 569.823662 773.103562 C 558.351063 754.618393 550.878086 733.378986 548.615143 710.656529 C 548.088877 705.730682 547.825744 700.698902 547.825744 695.614156 C 547.825744 667.17136 555.877613 640.635344 569.823662 618.124751 C 575.559961 608.802717 582.348792 600.169243 590.032275 592.383226 C 604.609843 577.499752 622.345006 565.688311 642.185234 558.061193 C 648.026786 555.78365 654.078845 553.876871 660.288783 552.39382 C 661.393942 552.128989 662.4991 551.864159 663.604259 551.652294 C 673.813819 549.374752 684.391765 548.209498 695.232844 548.209498 C 713.915286 548.209498 731.80833 551.705261 748.280455 558.061193 C 774.96214 568.336616 797.907337 586.186192 814.484715 609.014582 L 814.484715 548.209498 L 814.589968 548.209498 C 814.484715 546.514583 814.484715 544.766701 814.484715 543.01882 C 814.484715 510.656532 824.904781 480.677719 842.587318 456.419245 C 856.585993 437.139585 875.163182 421.408653 896.634834 410.815433 C 916.317182 401.06967 938.472979 395.614162 961.839189 395.614162 C 977.416662 395.614162 992.415242 398.050602 1006.51917 402.499755 C 1013.623761 404.777297 1020.465219 407.531534 1027.09617 410.815433 C 1075.775773 434.862042 1109.246289 485.02094 1109.246289 543.01882 C 1109.246289 544.766701 1109.193662 546.514583 1109.141036 548.209498 C 1109.035783 551.546362 1108.825276 554.777294 1108.509517 558.061193 C 1104.404642 598.209497 1084.196029 633.643818 1054.462001 657.690428 C 1052.041177 617.383226 1027.148796 583.114158 992.099482 567.33026 C 978.83758 561.345091 964.102132 558.061193 948.629913 558.061193 C 900.160816 558.061193 859.322576 590.529412 846.639566 634.915005 C 844.008236 644.184072 842.587318 653.929835 842.587318 664.04636 L 842.587318 695.614156 C 842.587318 700.645936 842.324185 705.677715 841.797919 710.656529 L 842.587318 710.656529 L 842.587318 922.67983 Z M 814.484715 922.67983 " stroke="rgb(0%, 0%, 0%)" stroke-width="0.25" stroke-opacity="1" stroke-miterlimit="10"/></svg>